<?xml version="1.0" standalone="no"?>
<!DOCTYPE svg PUBLIC "-//W3C//DTD SVG 20010904//EN"
 "http://www.w3.org/TR/2001/REC-SVG-20010904/DTD/svg10.dtd">
<svg version="1.0" xmlns="http://www.w3.org/2000/svg"
 width="459.000000pt" height="459.000000pt" viewBox="0 0 459.000000 459.000000"
 preserveAspectRatio="xMidYMid meet">
<metadata>
Created by potrace 1.11, written by Peter Selinger 2001-2013
</metadata>
<g transform="translate(0.000000,459.000000) scale(0.100000,-0.100000)"
fill="#000000" stroke="none">
<path d="M0 2295 l0 -2295 2295 0 2295 0 0 2295 0 2295 -2295 0 -2295 0 0
-2295z m4178 1034 c26 -13 54 -38 70 -62 l27 -41 0 -996 0 -996 -27 -41 c-16
-24 -44 -49 -70 -62 -44 -21 -45 -21 -1084 -21 -993 0 -1041 1 -1080 19 -23
10 -54 36 -70 57 l-29 37 0 1007 0 1007 29 37 c16 21 47 47 70 57 39 18 87 19
1080 19 1039 0 1040 0 1084 -21z m-2378 -584 l0 -75 -105 0 -105 0 0 75 0 75
105 0 105 0 0 -75z m-1078 -284 c53 -168 105 -338 114 -378 10 -40 20 -73 24
-73 3 0 12 21 18 48 7 26 59 196 115 377 l103 330 142 3 142 3 0 -521 0 -520
-96 0 -96 0 4 414 c1 228 2 414 2 413 -1 -1 -11 -38 -23 -82 -12 -44 -69 -230
-128 -412 l-106 -333 -79 0 c-43 0 -78 2 -78 5 0 3 -41 132 -91 287 -51 156
-108 340 -128 410 l-36 126 4 -414 3 -414 -96 0 -96 0 0 520 0 521 142 -3 142
-3 98 -304z m1076 -333 l2 -398 -105 0 -105 0 0 400 0 401 103 -3 102 -3 3
-397z"/>
<path d="M2190 2250 l0 -520 101 0 101 0 -4 384 c-3 374 -3 383 15 353 10 -18
107 -189 215 -382 l198 -350 132 -3 132 -3 0 521 0 520 -101 0 -100 0 3 -389
c2 -214 1 -387 -1 -385 -2 2 -102 176 -221 387 l-217 382 -126 3 -127 3 0
-521z"/>
<path d="M3425 2517 c-63 -31 -107 -77 -139 -147 -71 -156 -53 -424 37 -542
19 -24 56 -54 87 -71 51 -27 62 -29 140 -25 100 5 171 37 215 97 l27 36 -5
-96 c-9 -159 -44 -211 -150 -217 -73 -4 -122 20 -141 69 -10 29 -14 30 -51 25
-22 -3 -68 -8 -102 -12 -69 -7 -72 -12 -49 -67 19 -47 73 -96 136 -126 51 -24
66 -26 190 -26 124 0 139 2 190 26 107 50 157 116 179 234 7 36 11 211 11 452
l0 393 -99 0 -98 0 -7 -31 c-3 -17 -6 -43 -6 -58 0 -25 -1 -24 -25 11 -14 21
-46 50 -72 65 -39 22 -61 28 -132 31 -75 3 -92 0 -136 -21z m296 -163 c46 -44
64 -105 64 -214 -1 -115 -15 -170 -59 -217 -28 -31 -40 -37 -88 -41 -66 -5
-107 13 -136 60 -71 117 -45 383 41 430 61 33 133 26 178 -18z"/>
</g>
</svg>
